HIERARCHY
ROOT Hips
{
	OFFSET 0.000000 0.000000 0.000000
	CHANNELS 6 Xposition Yposition Zposition Zrotation Yrotation Xrotation 
	JOINT LHipJoint
	{
		OFFSET 0.000000 0.000000 0.000000
		CHANNELS 3 Zrotation Yrotation Xrotation
		JOINT LeftUpLeg
		{
			OFFSET 1.363060 -1.794630 0.839290
			CHANNELS 3 Zrotation Yrotation Xrotation
			JOINT LeftLeg
			{
				OFFSET 2.448110 -6.726130 0.000000
				CHANNELS 3 Zrotation Yrotation Xrotation
				JOINT LeftFoot
				{
					OFFSET 2.562200 -7.039590 0.000000
					CHANNELS 3 Zrotation Yrotation Xrotation
					JOINT LeftToeBase
					{
						OFFSET 0.157640 -0.433110 2.322550
						CHANNELS 3 Zrotation Yrotation Xrotation
						End Site
						{
							OFFSET 0.000000 0.000000 0.000000
						}
					}
				}
			}
		}
	}
	JOINT RHipJoint
	{
		OFFSET 0.000000 0.000000 0.000000
		CHANNELS 3 Zrotation Yrotation Xrotation
		JOINT RightUpLeg
		{
			OFFSET -1.305520 -1.794630 0.839290
			CHANNELS 3 Zrotation Yrotation Xrotation
			JOINT RightLeg
			{
				OFFSET -2.542530 -6.985550 0.000000
				CHANNELS 3 Zrotation Yrotation Xrotation
				JOINT RightFoot
				{
					OFFSET -2.568260 -7.056230 0.000000
					CHANNELS 3 Zrotation Yrotation Xrotation
					JOINT RightToeBase
					{
						OFFSET -0.164730 -0.452590 2.363150
						CHANNELS 3 Zrotation Yrotation Xrotation
						End Site
						{
							OFFSET 0.000000 0.000000 0.000000
						}
					}
				}
			}
		}
	}
	JOINT LowerBack
	{
		OFFSET 0.000000 0.000000 0.000000
		CHANNELS 3 Zrotation Yrotation Xrotation
		JOINT Spine
		{
			OFFSET 0.028270 2.035590 -0.193380
			CHANNELS 3 Zrotation Yrotation Xrotation
			JOINT Spine1
			{
				OFFSET 0.056720 2.048850 -0.042750
				CHANNELS 3 Zrotation Yrotation Xrotation
				JOINT Neck
				{
					OFFSET 0.000000 0.000000 0.000000
					CHANNELS 3 Zrotation Yrotation Xrotation
					JOINT Neck1
					{
						OFFSET -0.054170 1.746240 0.172020
						CHANNELS 3 Zrotation Yrotation Xrotation
						JOINT Head
						{
							OFFSET 0.104070 1.761360 -0.123970
							CHANNELS 3 Zrotation Yrotation Xrotation
							End Site
							{
								OFFSET 0.000000 0.000000 0.000000
							}
						}
					}
				}
				JOINT LeftShoulder
				{
					OFFSET 0.000000 0.000000 0.000000
					CHANNELS 3 Zrotation Yrotation Xrotation
					JOINT LeftArm
					{
						OFFSET 3.362410 1.200890 -0.311210
						CHANNELS 3 Zrotation Yrotation Xrotation
						JOINT LeftForeArm
						{
							OFFSET 4.983000 -0.000000 -0.000000
							CHANNELS 3 Zrotation Yrotation Xrotation
							JOINT LeftHand
							{
								OFFSET 3.483560 -0.000000 -0.000000
								CHANNELS 3 Zrotation Yrotation Xrotation
								JOINT LeftFingerBase
								{
									OFFSET 0.000000 0.000000 0.000000
									CHANNELS 3 Zrotation Yrotation Xrotation
									JOINT LeftHandIndex1
									{
										OFFSET 0.715260 -0.000000 -0.000000
										CHANNELS 3 Zrotation Yrotation Xrotation
										End Site
										{
											OFFSET 0.000000 0.000000 0.000000
										}
									}
								}
								JOINT LThumb
								{
									OFFSET 0.000000 0.000000 0.000000
									CHANNELS 3 Zrotation Yrotation Xrotation
									End Site
									{
										OFFSET 0.000000 0.000000 0.000000
									}
								}
							}
						}
					}
				}
				JOINT RightShoulder
				{
					OFFSET 0.000000 0.000000 0.000000
					CHANNELS 3 Zrotation Yrotation Xrotation
					JOINT RightArm
					{
						OFFSET -3.136600 1.374050 -0.404650
						CHANNELS 3 Zrotation Yrotation Xrotation
						JOINT RightForeArm
						{
							OFFSET -5.241900 -0.000000 -0.000000
							CHANNELS 3 Zrotation Yrotation Xrotation
							JOINT RightHand
							{
								OFFSET -3.444170 -0.000000 -0.000000
								CHANNELS 3 Zrotation Yrotation Xrotation
								JOINT RightFingerBase
								{
									OFFSET 0.000000 0.000000 0.000000
									CHANNELS 3 Zrotation Yrotation Xrotation
									JOINT RightHandIndex1
									{
										OFFSET -0.622530 -0.000000 -0.000000
										CHANNELS 3 Zrotation Yrotation Xrotation
										End Site
										{
											OFFSET 0.000000 0.000000 0.000000
										}
									}
								}
								JOINT RThumb
								{
									OFFSET 0.000000 0.000000 0.000000
									CHANNELS 3 Zrotation Yrotation Xrotation
									End Site
									{
										OFFSET 0.000000 0.000000 0.000000
									}
								}
							}
						}
					}
				}
			}
		}
	}
}
MOTION
Frames: 9
Frame Time: 0.008333
3.037288 16.839722 5.989689 2.043581 5.243121 15.187366 -11.995766 4.443914 -1.262235 -2.605808 17.455952 -5.583781 -0.092199 1.729702 33.640097 1.767058 5.184189 28.389784 2.083200 -0.000000 -80.106400 7.105590 -1.419692 4.519809 19.269906 8.676591 -33.887536 3.283380 0.689767 13.831000 -2.714493 -7.732363 -14.120754 -179.621200 -0.000000 -11.911900 4.800208 -2.879059 -3.042584 0.349810 -3.379225 -3.251785 -6.493590 -3.440805 1.470298 7.258788 -6.754817 -6.685551 -3.806473 -0.298693 0.244164 0.000000 0.000000 0.000000 -6.211807 5.584292 2.157581 -40.720655 -7.311911 6.098136 -2.548580 -47.198947 -0.008885 11.405637 -0.685495 -0.075170 -0.177122 0.069842 -0.000000 0.000000 0.000000 0.000000 0.000000 0.000000 0.000000 14.686261 -6.345421 1.212602 54.232671 -3.118560 -16.386851 4.350172 4.852693 0.004974 -3.303185 2.640369 -0.080964 0.157532 -0.044354 -0.000000 0.000000 0.000000 0.000000 0.000000 0.000000 0.000000 
3.083693 16.851761 6.150386 1.765352 4.883257 14.949579 -12.113097 4.309974 -1.278471 -2.262762 17.460917 -6.634064 0.006735 1.805421 36.246491 1.933848 6.023143 29.221463 2.551900 0.000000 -74.366899 7.055970 -1.509738 4.351660 19.739405 8.238139 -33.258373 3.348647 0.584778 14.316078 -2.544546 -7.256532 -13.561957 -179.722899 -0.000001 -10.786999 5.045091 -2.761928 -2.931385 0.386910 -3.274651 -3.244770 -6.492908 -3.335894 1.426247 7.250743 -6.598211 -6.615913 -3.818404 -0.300263 0.262647 0.000000 0.000000 0.000000 -6.296362 5.594762 2.118617 -41.406546 -7.278606 6.355314 -2.557288 -47.015490 -0.008565 11.183332 -0.636598 -0.068686 -0.174833 0.068516 -0.000000 0.000000 0.000000 0.000000 0.000000 0.000000 0.000000 14.663935 -6.133441 1.221542 54.398111 -3.132527 -16.528933 4.360728 4.609744 0.004530 -3.334845 2.490611 -0.077171 0.157557 -0.044302 -0.000000 0.000000 0.000000 0.000000 0.000000 0.000000 0.000000 
3.125306 16.864714 6.307529 1.520193 4.479320 14.726365 -12.193092 4.165792 -1.325759 -2.018579 17.511595 -7.799112 0.086712 1.897537 38.928023 2.091060 7.280712 29.385760 3.241100 0.000000 -68.035400 7.024673 -1.584418 4.193105 20.140025 7.826689 -32.639148 3.405829 0.487387 14.826282 -2.389043 -6.743907 -13.239855 -179.772701 -0.000000 -9.995100 5.208666 -2.646559 -2.798150 0.405030 -3.165198 -3.232115 -6.503632 -3.226242 1.385023 7.283608 -6.416482 -6.548381 -3.832458 -0.301894 0.279986 0.000000 0.000000 0.000000 -6.335035 5.623480 2.086126 -42.123801 -7.242354 6.634326 -2.574595 -46.716514 -0.008266 10.913616 -0.544561 -0.057904 -0.172555 0.066817 -0.000000 0.000000 0.000000 0.000000 0.000000 0.000000 0.000000 14.689726 -5.891263 1.232430 54.651322 -3.048941 -16.594218 4.364821 4.411190 0.004122 -3.353676 2.357325 -0.073476 0.157111 -0.044277 -0.000000 0.000000 0.000000 0.000000 0.000000 0.000000 0.000000 
3.162459 16.878713 6.461418 1.305264 4.037021 14.522574 -12.239269 4.012682 -1.395649 -1.874470 17.566920 -9.062534 0.157755 2.006306 41.613411 2.245482 8.944779 28.938752 4.122600 0.000000 -62.368200 7.007531 -1.641373 4.050743 20.464068 7.479097 -32.001289 3.452736 0.404955 15.317719 -2.257329 -6.239208 -13.151276 -179.777500 -0.000001 -9.624300 5.301395 -2.535810 -2.653034 0.406843 -3.055007 -3.217396 -6.525850 -3.116172 1.341306 7.346530 -6.201349 -6.476809 -3.849342 -0.303728 0.298024 0.000000 0.000000 0.000000 -6.347059 5.648325 2.061832 -42.843820 -7.146719 6.937573 -2.597290 -46.356067 -0.007962 10.601698 -0.405231 -0.042927 -0.170184 0.064502 -0.000000 0.000000 0.000000 0.000000 0.000000 0.000000 0.000000 14.752359 -5.611838 1.246327 54.993615 -2.877991 -16.612837 4.362481 4.259141 0.003771 -3.355395 2.247988 -0.070178 0.156180 -0.044404 -0.000000 0.000000 0.000000 0.000000 0.000000 0.000000 0.000000 
3.195172 16.893839 6.612715 1.127820 3.568703 14.350866 -12.251201 3.855419 -1.478177 -1.843502 17.590220 -10.433643 0.225596 2.132790 44.279795 2.394768 10.887426 27.862705 5.079700 0.000000 -57.128300 7.006642 -1.678936 3.932318 20.695921 7.212894 -31.344141 3.487643 0.342464 15.757327 -2.154359 -5.771809 -13.281352 -179.745900 -0.000000 -9.695600 5.319918 -2.434466 -2.513779 0.392781 -2.949550 -3.202209 -6.558044 -3.011029 1.302335 7.435718 -5.969730 -6.408490 -3.868475 -0.305662 0.314894 0.000000 0.000000 0.000000 -6.336710 5.694577 2.043913 -43.559074 -7.019592 7.277385 -2.626316 -45.929069 -0.007638 10.252654 -0.232722 -0.025452 -0.167839 0.061658 -0.000000 0.000000 0.000000 0.000000 0.000000 0.000000 0.000000 14.851918 -5.314566 1.259475 55.417472 -2.603106 -16.569838 4.353800 4.154569 0.003501 -3.339555 2.168049 -0.067379 0.154813 -0.044634 -0.000000 0.000000 0.000000 0.000000 0.000000 0.000000 0.000000 
3.223963 16.910317 6.762000 0.986224 3.087707 14.218349 -12.233062 3.695332 -1.560106 -1.925091 17.534379 -11.904846 0.294518 2.272196 46.873563 2.543247 12.998684 26.231392 6.005900 0.000000 -52.768400 7.019263 -1.697018 3.841036 20.836859 7.038102 -30.654449 3.511160 0.305485 16.097792 -2.083013 -5.371409 -13.591004 -179.688500 -0.000000 -10.177000 5.274940 -2.345128 -2.394062 0.365784 -2.852888 -3.189348 -6.598689 -2.914891 1.268084 7.541735 -5.726420 -6.343243 -3.890040 -0.307735 0.330791 0.000000 0.000000 0.000000 -6.318204 5.760036 2.031964 -44.257965 -6.848366 7.659107 -2.660654 -45.457025 -0.007280 9.870718 -0.035177 -0.006879 -0.165486 0.058248 -0.000000 0.000000 0.000000 0.000000 0.000000 0.000000 0.000000 14.980685 -5.005938 1.270363 55.916778 -2.230568 -16.476414 4.339306 4.104468 0.003326 -3.300239 2.122872 -0.065276 0.153024 -0.045002 -0.000000 0.000000 0.000000 0.000000 0.000000 0.000000 0.000000 
3.249415 16.928359 6.909913 0.878368 2.609879 14.129793 -12.189358 3.534263 -1.628885 -2.112813 17.359323 -13.467927 0.365405 2.419120 49.349496 2.691006 15.139044 24.103378 6.779500 -0.000000 -49.089000 7.043081 -1.696944 3.777061 20.893227 6.950304 -29.925510 3.524578 0.297376 16.298986 -2.042712 -5.056930 -14.027640 -179.614999 0.000000 -10.971200 5.177432 -2.269821 -2.304946 0.328846 -2.768334 -3.180479 -6.645417 -2.831007 1.240608 7.656619 -5.488798 -6.284333 -3.913697 -0.309913 0.344981 0.000000 0.000000 0.000000 -6.300721 5.842972 2.024060 -44.939124 -6.629073 8.082844 -2.699383 -44.951439 -0.006871 9.459138 0.175633 0.011493 -0.163077 0.054305 -0.000000 0.000000 0.000000 0.000000 0.000000 0.000000 0.000000 15.132658 -4.705415 1.277393 56.481365 -1.755958 -16.316168 4.319719 4.115013 0.003259 -3.233904 2.114588 -0.063671 0.150859 -0.045481 -0.000000 0.000000 0.000000 0.000000 0.000000 0.000000 0.000000 
3.272186 16.948205 7.056973 0.801442 2.150021 14.087280 -12.125030 3.372485 -1.670231 -2.395729 17.021658 -15.103184 0.436948 2.564582 51.646140 2.840667 17.203422 21.608482 7.323100 -0.000001 -46.328300 7.075649 -1.680715 3.737195 20.875292 6.935054 -29.153902 3.529496 0.319666 16.328721 -2.029946 -4.836320 -14.531913 -179.533400 -0.000000 -11.948000 5.039723 -2.209049 -2.255306 0.284899 -2.697630 -3.177747 -6.696139 -2.761144 1.218274 7.772182 -5.251474 -6.229538 -3.939617 -0.312244 0.358154 0.000000 0.000000 0.000000 -6.293391 5.945392 2.020230 -45.603011 -6.368626 8.552123 -2.742579 -44.413617 -0.006419 9.022503 0.388900 0.028466 -0.160622 0.049925 -0.000000 0.000000 0.000000 0.000000 0.000000 0.000000 0.000000 15.299528 -4.407483 1.278721 57.106515 -1.210654 -16.124818 4.296264 4.203027 0.003312 -3.126562 2.146130 -0.062563 0.148302 -0.046132 -0.000000 0.000000 0.000000 0.000000 0.000000 0.000000 0.000000 
3.292920 16.969871 7.203629 0.751937 1.721739 14.088904 -12.044837 3.211118 -1.675380 -2.752427 16.500607 -16.790692 0.505519 2.702300 53.721745 2.987465 19.072716 18.819343 7.563101 0.000000 -44.093100 7.115051 -1.651335 3.716141 20.795800 6.970554 -28.339259 3.527351 0.371438 16.169129 -2.038874 -4.707205 -15.044043 -179.450600 0.000000 -12.957600 4.872953 -2.162422 -2.247671 0.236603 -2.641164 -3.181393 -6.748121 -2.705628 1.201842 7.883044 -5.030330 -6.181409 -3.967118 -0.314668 0.369719 0.000000 0.000000 0.000000 -6.298786 6.061880 2.018382 -46.259822 -6.070763 9.059581 -2.789368 -43.843113 -0.005926 8.564361 0.593845 0.043038 -0.158071 0.045231 -0.000000 0.000000 0.000000 0.000000 0.000000 0.000000 0.000000 15.475545 -4.128700 1.273559 57.782621 -0.600614 -15.881696 4.270181 4.380229 0.003486 -2.971082 2.215441 -0.061351 0.145388 -0.046917 -0.000000 0.000000 0.000000 0.000000 0.000000 0.000000 0.000000 
